<?xml version="1.0" encoding="UTF-8"?>
<svg xmlns="http://www.w3.org/2000/svg" xmlns:xlink="http://www.w3.org/1999/xlink" width="72pt" height="72pt" viewBox="0 0 72 72" version="1.1">
<g id="surface16">
<path style="fill-rule:nonzero;fill:rgb(54.509804%,21.176471%,14.901961%);fill-opacity:1;stroke-width:0.525;stroke-linecap:round;stroke-linejoin:round;stroke:rgb(20%,20%,20%);stroke-opacity:1;stroke-miterlimit:10;" d="M 65.21875 40.066406 C 65.21875 44.039062 61.996094 47.265625 58.019531 47.265625 C 54.042969 47.265625 50.820312 44.039062 50.820312 40.066406 C 50.820312 36.089844 54.042969 32.863281 58.019531 32.863281 C 61.996094 32.863281 65.21875 36.089844 65.21875 40.066406 "/>
<path style="fill-rule:nonzero;fill:rgb(54.509804%,21.176471%,14.901961%);fill-opacity:1;stroke-width:0.525;stroke-linecap:round;stroke-linejoin:round;stroke:rgb(20%,20%,20%);stroke-opacity:1;stroke-miterlimit:10;" d="M 47.011719 49.671875 C 47.011719 53.066406 44.257812 55.816406 40.863281 55.816406 C 37.46875 55.816406 34.714844 53.066406 34.714844 49.671875 C 34.714844 46.277344 37.46875 43.523438 40.863281 43.523438 C 44.257812 43.523438 47.011719 46.277344 47.011719 49.671875 "/>
<path style="fill-rule:nonzero;fill:rgb(54.509804%,21.176471%,14.901961%);fill-opacity:1;stroke-width:0.525;stroke-linecap:round;stroke-linejoin:round;stroke:rgb(20%,20%,20%);stroke-opacity:1;stroke-miterlimit:10;" d="M 28.15625 48.957031 C 28.15625 52.03125 25.664062 54.523438 22.585938 54.523438 C 19.511719 54.523438 17.019531 52.03125 17.019531 48.957031 C 17.019531 45.878906 19.511719 43.386719 22.585938 43.386719 C 25.664062 43.386719 28.15625 45.878906 28.15625 48.957031 "/>
<path style="fill-rule:nonzero;fill:rgb(54.509804%,21.176471%,14.901961%);fill-opacity:1;stroke-width:0.525;stroke-linecap:round;stroke-linejoin:round;stroke:rgb(20%,20%,20%);stroke-opacity:1;stroke-miterlimit:10;" d="M 46.339844 23.992188 C 46.339844 30.648438 36.355469 30.648438 36.355469 23.992188 C 36.355469 17.339844 46.339844 17.339844 46.339844 23.992188 "/>
<path style="fill-rule:nonzero;fill:rgb(54.509804%,21.176471%,14.901961%);fill-opacity:1;stroke-width:0.525;stroke-linecap:round;stroke-linejoin:round;stroke:rgb(20%,20%,20%);stroke-opacity:1;stroke-miterlimit:10;" d="M 43.164062 34.242188 C 43.164062 39.25 35.652344 39.25 35.652344 34.242188 C 35.652344 29.234375 43.164062 29.234375 43.164062 34.242188 "/>
<path style="fill-rule:nonzero;fill:rgb(54.509804%,21.176471%,14.901961%);fill-opacity:1;stroke-width:0.525;stroke-linecap:round;stroke-linejoin:round;stroke:rgb(20%,20%,20%);stroke-opacity:1;stroke-miterlimit:10;" d="M 16.277344 32.976562 C 16.277344 37.347656 9.71875 37.347656 9.71875 32.976562 C 9.71875 28.601562 16.277344 28.601562 16.277344 32.976562 "/>
<path style="fill-rule:nonzero;fill:rgb(54.509804%,21.176471%,14.901961%);fill-opacity:1;stroke-width:0.525;stroke-linecap:round;stroke-linejoin:round;stroke:rgb(20%,20%,20%);stroke-opacity:1;stroke-miterlimit:10;" d="M 33 19.878906 C 33 23.664062 27.320312 23.664062 27.320312 19.878906 C 27.320312 16.089844 33 16.089844 33 19.878906 "/>
<path style="fill-rule:nonzero;fill:rgb(54.509804%,21.176471%,14.901961%);fill-opacity:1;stroke-width:0.525;stroke-linecap:round;stroke-linejoin:round;stroke:rgb(20%,20%,20%);stroke-opacity:1;stroke-miterlimit:10;" d="M 22.832031 20.832031 C 22.832031 23.839844 18.316406 23.839844 18.316406 20.832031 C 18.316406 17.824219 22.832031 17.824219 22.832031 20.832031 "/>
</g>
</svg>
