<?xml version="1.0" encoding="UTF-8"?>
<svg xmlns="http://www.w3.org/2000/svg" xmlns:xlink="http://www.w3.org/1999/xlink" width="72pt" height="72pt" viewBox="0 0 72 72" version="1.1">
<g id="surface41">
<path style="fill-rule:evenodd;fill:rgb(29.803922%,72.54902%,80%);fill-opacity:1;stroke-width:0.525;stroke-linecap:round;stroke-linejoin:round;stroke:rgb(20%,20%,20%);stroke-opacity:1;stroke-miterlimit:10;" d="M 25.253906 33.894531 L 26.238281 34.335938 L 26.40625 34.609375 L 26.253906 35.675781 L 7.964844 47.40625 L 2.667969 31.460938 L 11.394531 17.210938 Z M 25.253906 33.894531 "/>
<path style="fill-rule:evenodd;fill:rgb(29.803922%,72.54902%,80%);fill-opacity:1;stroke-width:0.525;stroke-linecap:round;stroke-linejoin:round;stroke:rgb(20%,20%,20%);stroke-opacity:1;stroke-miterlimit:10;" d="M 25.253906 33.894531 L 11.394531 17.210938 L 25.078125 11.390625 Z M 25.253906 33.894531 "/>
<path style="fill-rule:evenodd;fill:rgb(29.803922%,72.54902%,80%);fill-opacity:1;stroke-width:0.525;stroke-linecap:round;stroke-linejoin:round;stroke:rgb(20%,20%,20%);stroke-opacity:1;stroke-miterlimit:10;" d="M 25.253906 33.894531 L 25.078125 11.390625 L 40.0625 12.617188 L 26.238281 34.335938 Z M 25.253906 33.894531 "/>
<path style="fill-rule:evenodd;fill:rgb(29.803922%,72.54902%,80%);fill-opacity:1;stroke-width:0.525;stroke-linecap:round;stroke-linejoin:round;stroke:rgb(20%,20%,20%);stroke-opacity:1;stroke-miterlimit:10;" d="M 26.238281 34.335938 L 40.0625 12.617188 L 55.070312 20.148438 L 50.296875 28.496094 L 26.40625 34.609375 Z M 26.238281 34.335938 "/>
<path style="fill-rule:evenodd;fill:rgb(29.803922%,72.54902%,80%);fill-opacity:1;stroke-width:0.525;stroke-linecap:round;stroke-linejoin:round;stroke:rgb(20%,20%,20%);stroke-opacity:1;stroke-miterlimit:10;" d="M 31.871094 38.089844 L 26.253906 35.675781 L 26.40625 34.609375 L 50.296875 28.496094 L 46.640625 37.265625 Z M 31.871094 38.089844 "/>
<path style="fill-rule:evenodd;fill:rgb(29.803922%,72.54902%,80%);fill-opacity:1;stroke-width:0.525;stroke-linecap:round;stroke-linejoin:round;stroke:rgb(20%,20%,20%);stroke-opacity:1;stroke-miterlimit:10;" d="M 54.890625 60.230469 L 46.640625 37.265625 L 50.296875 28.496094 L 55.070312 20.148438 L 69.332031 31.027344 L 63.832031 57.417969 Z M 54.890625 60.230469 "/>
<path style="fill-rule:evenodd;fill:rgb(85.882353%,61.568627%,52.156863%);fill-opacity:1;stroke-width:0.525;stroke-linecap:round;stroke-linejoin:round;stroke:rgb(20%,20%,20%);stroke-opacity:1;stroke-miterlimit:10;" d="M 7.964844 47.40625 L 26.253906 35.675781 L 31.871094 38.089844 L 28.3125 55.390625 L 37.632812 60.433594 L 21.535156 60.609375 Z M 7.964844 47.40625 "/>
<path style="fill-rule:evenodd;fill:rgb(29.803922%,72.54902%,80%);fill-opacity:1;stroke-width:0.525;stroke-linecap:round;stroke-linejoin:round;stroke:rgb(20%,20%,20%);stroke-opacity:1;stroke-miterlimit:10;" d="M 31.871094 38.089844 L 46.640625 37.265625 L 54.890625 60.230469 L 37.632812 60.433594 L 28.3125 55.390625 Z M 31.871094 38.089844 "/>
</g>
</svg>
