<?xml version="1.0" encoding="UTF-8"?>
<svg xmlns="http://www.w3.org/2000/svg" xmlns:xlink="http://www.w3.org/1999/xlink" width="72pt" height="72pt" viewBox="0 0 72 72" version="1.1">
<g id="surface66">
<path style="fill-rule:nonzero;fill:rgb(87.45098%,32.54902%,41.960784%);fill-opacity:1;stroke-width:0.525;stroke-linecap:round;stroke-linejoin:round;stroke:rgb(20%,20%,20%);stroke-opacity:1;stroke-miterlimit:10;" d="M 15.695312 32.976562 C 15.695312 36.574219 10.296875 36.574219 10.296875 32.976562 C 10.296875 29.375 15.695312 29.375 15.695312 32.976562 "/>
<path style="fill-rule:nonzero;fill:rgb(87.45098%,32.54902%,41.960784%);fill-opacity:1;stroke-width:0.525;stroke-linecap:round;stroke-linejoin:round;stroke:rgb(20%,20%,20%);stroke-opacity:1;stroke-miterlimit:10;" d="M 23.273438 20.832031 C 23.273438 24.429688 17.875 24.429688 17.875 20.832031 C 17.875 17.230469 23.273438 17.230469 23.273438 20.832031 "/>
<path style="fill-rule:nonzero;fill:rgb(87.45098%,32.54902%,41.960784%);fill-opacity:1;stroke-width:0.525;stroke-linecap:round;stroke-linejoin:round;stroke:rgb(20%,20%,20%);stroke-opacity:1;stroke-miterlimit:10;" d="M 32.859375 19.878906 C 32.859375 23.476562 27.460938 23.476562 27.460938 19.878906 C 27.460938 16.277344 32.859375 16.277344 32.859375 19.878906 "/>
<path style="fill-rule:nonzero;fill:rgb(87.45098%,32.54902%,41.960784%);fill-opacity:1;stroke-width:0.525;stroke-linecap:round;stroke-linejoin:round;stroke:rgb(20%,20%,20%);stroke-opacity:1;stroke-miterlimit:10;" d="M 44.046875 23.992188 C 44.046875 27.59375 38.648438 27.59375 38.648438 23.992188 C 38.648438 20.390625 44.046875 20.390625 44.046875 23.992188 "/>
<path style="fill-rule:nonzero;fill:rgb(87.45098%,32.54902%,41.960784%);fill-opacity:1;stroke-width:0.525;stroke-linecap:round;stroke-linejoin:round;stroke:rgb(20%,20%,20%);stroke-opacity:1;stroke-miterlimit:10;" d="M 42.109375 34.242188 C 42.109375 37.839844 36.707031 37.839844 36.707031 34.242188 C 36.707031 30.640625 42.109375 30.640625 42.109375 34.242188 "/>
<path style="fill-rule:nonzero;fill:rgb(87.45098%,32.54902%,41.960784%);fill-opacity:1;stroke-width:0.525;stroke-linecap:round;stroke-linejoin:round;stroke:rgb(20%,20%,20%);stroke-opacity:1;stroke-miterlimit:10;" d="M 60.71875 40.066406 C 60.71875 43.664062 55.320312 43.664062 55.320312 40.066406 C 55.320312 36.464844 60.71875 36.464844 60.71875 40.066406 "/>
<path style="fill-rule:nonzero;fill:rgb(87.45098%,32.54902%,41.960784%);fill-opacity:1;stroke-width:0.525;stroke-linecap:round;stroke-linejoin:round;stroke:rgb(20%,20%,20%);stroke-opacity:1;stroke-miterlimit:10;" d="M 22.585938 44.757812 L 26.222656 51.054688 L 18.953125 51.054688 Z M 22.585938 44.757812 "/>
<path style="fill-rule:nonzero;fill:rgb(87.45098%,32.54902%,41.960784%);fill-opacity:1;stroke-width:0.525;stroke-linecap:round;stroke-linejoin:round;stroke:rgb(20%,20%,20%);stroke-opacity:1;stroke-miterlimit:10;" d="M 43.5625 49.671875 C 43.5625 53.269531 38.164062 53.269531 38.164062 49.671875 C 38.164062 46.070312 43.5625 46.070312 43.5625 49.671875 "/>
</g>
</svg>
