<?xml version="1.0" encoding="UTF-8"?>
<svg xmlns="http://www.w3.org/2000/svg" xmlns:xlink="http://www.w3.org/1999/xlink" width="72pt" height="72pt" viewBox="0 0 72 72" version="1.1">
<g id="surface151">
<path style="fill-rule:nonzero;fill:rgb(54.509804%,21.176471%,14.901961%);fill-opacity:1;stroke-width:0.525;stroke-linecap:round;stroke-linejoin:round;stroke:rgb(20%,20%,20%);stroke-opacity:1;stroke-miterlimit:10;" d="M 53.234375 44.851562 L 62.804688 44.851562 L 62.804688 35.28125 L 53.234375 35.28125 Z M 53.234375 44.851562 "/>
<path style="fill-rule:nonzero;fill:rgb(54.509804%,21.176471%,14.901961%);fill-opacity:1;stroke-width:0.525;stroke-linecap:round;stroke-linejoin:round;stroke:rgb(20%,20%,20%);stroke-opacity:1;stroke-miterlimit:10;" d="M 36.078125 54.457031 L 45.648438 54.457031 L 45.648438 44.886719 L 36.078125 44.886719 Z M 36.078125 54.457031 "/>
<path style="fill-rule:nonzero;fill:rgb(54.509804%,21.176471%,14.901961%);fill-opacity:1;stroke-width:0.525;stroke-linecap:round;stroke-linejoin:round;stroke:rgb(20%,20%,20%);stroke-opacity:1;stroke-miterlimit:10;" d="M 17.800781 53.742188 L 27.371094 53.742188 L 27.371094 44.171875 L 17.800781 44.171875 Z M 17.800781 53.742188 "/>
<path style="fill-rule:nonzero;fill:rgb(54.509804%,21.176471%,14.901961%);fill-opacity:1;stroke-width:0.525;stroke-linecap:round;stroke-linejoin:round;stroke:rgb(20%,20%,20%);stroke-opacity:1;stroke-miterlimit:10;" d="M 36.5625 28.777344 L 46.132812 28.777344 L 46.132812 19.207031 L 36.5625 19.207031 Z M 36.5625 28.777344 "/>
<path style="fill-rule:nonzero;fill:rgb(54.509804%,21.176471%,14.901961%);fill-opacity:1;stroke-width:0.525;stroke-linecap:round;stroke-linejoin:round;stroke:rgb(20%,20%,20%);stroke-opacity:1;stroke-miterlimit:10;" d="M 37.015625 36.632812 L 41.800781 36.632812 L 41.800781 31.847656 L 37.015625 31.847656 Z M 37.015625 36.632812 "/>
<path style="fill-rule:nonzero;fill:rgb(54.509804%,21.176471%,14.901961%);fill-opacity:1;stroke-width:0.525;stroke-linecap:round;stroke-linejoin:round;stroke:rgb(20%,20%,20%);stroke-opacity:1;stroke-miterlimit:10;" d="M 10.605469 35.367188 L 15.390625 35.367188 L 15.390625 30.582031 L 10.605469 30.582031 Z M 10.605469 35.367188 "/>
<path style="fill-rule:nonzero;fill:rgb(54.509804%,21.176471%,14.901961%);fill-opacity:1;stroke-width:0.525;stroke-linecap:round;stroke-linejoin:round;stroke:rgb(20%,20%,20%);stroke-opacity:1;stroke-miterlimit:10;" d="M 27.769531 22.269531 L 32.554688 22.269531 L 32.554688 17.484375 L 27.769531 17.484375 Z M 27.769531 22.269531 "/>
<path style="fill-rule:nonzero;fill:rgb(54.509804%,21.176471%,14.901961%);fill-opacity:1;stroke-width:0.525;stroke-linecap:round;stroke-linejoin:round;stroke:rgb(20%,20%,20%);stroke-opacity:1;stroke-miterlimit:10;" d="M 18.179688 23.222656 L 22.964844 23.222656 L 22.964844 18.4375 L 18.179688 18.4375 Z M 18.179688 23.222656 "/>
</g>
</svg>
